<?xml version="1.0" standalone="no"?>
<!DOCTYPE svg PUBLIC "-//W3C//DTD SVG 20010904//EN"
 "http://www.w3.org/TR/2001/REC-SVG-20010904/DTD/svg10.dtd">
<svg version="1.0" xmlns="http://www.w3.org/2000/svg"
 width="726.000000pt" height="726.000000pt" viewBox="0 0 726.000000 726.000000"
 preserveAspectRatio="xMidYMid meet">
<g transform="translate(0.000000,726.000000) scale(0.100000,-0.100000)"
fill="#000000" stroke="none">
<path d="M220 5670 l0 -60 -110 0 -110 0 0 -170 0 -170 55 0 55 0 0 -225 0
-225 55 0 55 0 0 -230 0 -230 115 0 115 0 0 -225 0 -225 55 0 55 0 0 -225 0
-225 170 0 170 0 0 280 0 280 -55 0 -55 0 0 170 0 170 -55 0 -55 0 0 60 0 60
-60 0 -60 0 0 170 0 170 -55 0 -55 0 0 170 0 170 55 0 55 0 0 55 0 55 60 0 60
0 0 -110 0 -110 55 0 55 0 0 -60 0 -60 55 0 55 0 0 -55 0 -55 60 0 60 0 0 -55
0 -55 55 0 55 0 0 -60 0 -60 60 0 60 0 0 -225 0 -225 55 0 55 0 0 -455 0 -455
910 0 910 0 0 1135 0 1135 -230 0 -230 0 0 55 0 55 -340 0 -340 0 0 60 0 60
-910 0 -910 0 0 -60z"/>
<path d="M5790 5670 l0 -60 -455 0 -455 0 0 -55 0 -55 -115 0 -115 0 0 -1135
0 -1135 965 0 965 0 0 170 0 170 60 0 60 0 0 170 0 170 55 0 55 0 0 115 0 115
55 0 55 0 0 170 0 170 60 0 60 0 0 170 0 170 55 0 55 0 0 115 0 115 55 0 55 0
0 280 0 280 -55 0 -55 0 0 60 0 60 -680 0 -680 0 0 -60z"/>
<path d="M3520 5445 l0 -55 -60 0 -60 0 0 -60 0 -60 -55 0 -55 0 0 -1020 0
-1020 625 0 625 0 0 1020 0 1020 -55 0 -55 0 0 60 0 60 -60 0 -60 0 0 55 0 55
-395 0 -395 0 0 -55z"/>
<path d="M560 3000 l0 -230 170 0 170 0 0 -55 0 -55 -170 0 -170 0 0 -170 0
-170 170 0 170 0 0 -55 0 -55 115 0 115 0 0 170 0 170 60 0 60 0 0 55 0 55
110 0 110 0 0 55 0 55 60 0 60 0 0 60 0 60 55 0 55 0 0 115 0 115 -455 0 -455
0 0 55 0 55 -115 0 -115 0 0 -230z"/>
<path d="M2150 3060 l0 -60 -110 0 -110 0 0 -55 0 -55 -60 0 -60 0 0 -60 0
-60 -55 0 -55 0 0 -55 0 -55 -55 0 -55 0 0 -340 0 -340 55 0 55 0 0 -55 0 -55
55 0 55 0 0 -60 0 -60 60 0 60 0 0 -55 0 -55 55 0 55 0 0 -55 0 -55 510 0 510
0 0 55 0 55 60 0 60 0 0 55 0 55 55 0 55 0 0 60 0 60 55 0 55 0 0 55 0 55
-225 0 -225 0 0 -55 0 -55 -115 0 -115 0 0 110 0 110 400 0 400 0 0 115 0 115
-400 0 -400 0 0 225 0 225 115 0 115 0 0 -55 0 -55 55 0 55 0 0 -55 0 -55 60
0 60 0 0 -60 0 -60 170 0 170 0 0 60 0 60 170 0 170 0 0 -170 0 -170 55 0 55
0 0 -60 0 -60 115 0 115 0 0 60 0 60 55 0 55 0 0 170 0 170 115 0 115 0 0 55
0 55 55 0 55 0 0 55 0 55 115 0 115 0 0 -55 0 -55 -55 0 -55 0 0 -340 0 -340
55 0 55 0 0 -55 0 -55 55 0 55 0 0 -60 0 -60 60 0 60 0 0 -55 0 -55 110 0 110
0 0 -55 0 -55 455 0 455 0 0 55 0 55 60 0 60 0 0 55 0 55 55 0 55 0 0 60 0 60
55 0 55 0 0 55 0 55 60 0 60 0 0 115 0 115 -115 0 -115 0 0 -60 0 -60 -55 0
-55 0 0 -55 0 -55 -60 0 -60 0 0 -55 0 -55 -170 0 -170 0 0 225 0 225 400 0
400 0 0 115 0 115 -400 0 -400 0 0 110 0 110 170 0 170 0 0 -55 0 -55 170 0
170 0 0 55 0 55 -55 0 -55 0 0 60 0 60 55 0 55 0 0 115 0 115 -110 0 -110 0 0
-60 0 -60 -115 0 -115 0 0 60 0 60 -400 0 -400 0 0 -60 0 -60 -110 0 -110 0 0
-55 0 -55 -60 0 -60 0 0 115 0 115 -905 0 -905 0 0 -60 0 -60 -170 0 -170 0 0
60 0 60 -345 0 -345 0 0 -60z m230 -340 l0 -170 -285 0 -285 0 0 55 0 55 115
0 115 0 0 55 0 55 55 0 55 0 0 60 0 60 115 0 115 0 0 -170z m2610 110 l0 -60
-55 0 -55 0 0 60 0 60 55 0 55 0 0 -60z m570 -285 l0 -225 -285 0 -285 0 0 55
0 55 60 0 60 0 0 60 0 60 55 0 55 0 0 55 0 55 55 0 55 0 0 55 0 55 115 0 115
0 0 -225z m-3180 -510 l0 -285 -115 0 -115 0 0 60 0 60 -55 0 -55 0 0 55 0 55
-55 0 -55 0 0 55 0 55 -60 0 -60 0 0 60 0 60 -55 0 -55 0 0 55 0 55 340 0 340
0 0 -285z m3180 -115 l0 -170 -55 0 -55 0 0 60 0 60 -115 0 -115 0 0 55 0 55
-55 0 -55 0 0 55 0 55 225 0 225 0 0 -170z"/>
</g>
</svg>
